<svg width="104" height="105" viewBox="0 0 104 105" fill="none" xmlns="http://www.w3.org/2000/svg">
<g id="Artwork" clip-path="url(#clip0_7856_2105)">
<path id="Vector" d="M53.0635 92.7454C53.1545 92.7454 53.2349 92.7943 53.2779 92.8648L53.0635 92.7454Z" fill="#E4A025"/>
<path id="Vector_2" d="M51.854 72.1168C59.2196 68.5202 68.9201 61.4112 75.9429 51.0476C82.9656 40.6839 85.0214 29.0352 85.0214 20.7273V5.73768C80.3965 3.8532 67.0141 0 51.854 0C36.6929 0 23.3105 3.8532 18.6855 5.73768V20.7273C18.6855 29.0352 20.7404 40.6839 27.7632 51.0476C34.7879 61.4112 44.4875 68.5202 51.854 72.1168Z" fill="#DA2128"/>
<path id="Vector_3" d="M35.6433 29.475C36.6718 29.475 37.5062 28.6416 37.5062 27.6111C37.5062 26.9804 37.1938 26.424 36.7149 26.0871C36.6384 26.0332 36.6031 25.9656 36.6031 25.8795C36.6031 25.7404 36.7149 25.6277 36.8539 25.6277C36.9441 25.6277 37.0244 25.6777 37.0684 25.7502C37.3946 26.2889 37.9861 26.6484 38.662 26.6484C39.6914 26.6484 40.526 25.8148 40.526 24.7844C40.526 23.756 39.6914 22.9214 38.662 22.9214C38.1879 22.9214 37.757 23.0978 37.4279 23.3887C37.3241 23.466 37.2006 23.4445 37.2006 23.2868V11.2502C37.2006 11.0936 37.3241 11.072 37.4279 11.1484C37.757 11.4403 38.1879 11.6166 38.662 11.6166C39.6914 11.6166 40.526 10.782 40.526 9.75268C40.526 8.72423 39.6914 7.88876 38.662 7.88876C37.9861 7.88876 37.3946 8.24913 37.0684 8.78792C37.0244 8.86033 36.9441 8.91028 36.8539 8.91028C36.7149 8.91028 36.6031 8.79765 36.6031 8.65853C36.6031 8.57238 36.6384 8.50377 36.7149 8.45192C37.1938 8.11402 37.5062 7.55767 37.5062 6.92691C37.5062 5.89746 36.6718 5.06299 35.6433 5.06299C34.6139 5.06299 33.7794 5.89746 33.7794 6.92691C33.7794 7.55767 34.0928 8.11402 34.5717 8.45192C34.6482 8.50377 34.6835 8.57238 34.6835 8.65853C34.6835 8.79765 34.5717 8.91028 34.4327 8.91028C34.3426 8.91028 34.2622 8.86033 34.2182 8.78792C33.892 8.24913 33.2995 7.88876 32.6246 7.88876C31.5952 7.88876 30.7598 8.72423 30.7598 9.75268C30.7598 10.782 31.5952 11.6166 32.6246 11.6166C33.0977 11.6166 33.5297 11.4403 33.8587 11.1484C33.9615 11.072 34.086 11.0936 34.086 11.2502V23.2868C34.086 23.4445 33.9615 23.4661 33.8587 23.3887C33.5297 23.0978 33.0977 22.9214 32.6246 22.9214C31.5952 22.9214 30.7598 23.756 30.7598 24.7844C30.7598 25.8148 31.5952 26.6484 32.6246 26.6484C33.2995 26.6484 33.892 26.2889 34.2182 25.7502C34.2622 25.6777 34.3426 25.6277 34.4327 25.6277C34.5717 25.6277 34.6835 25.7404 34.6835 25.8795C34.6835 25.9656 34.6482 26.0332 34.5717 26.0871C34.0928 26.424 33.7794 26.9804 33.7794 27.6111C33.7794 28.6416 34.6139 29.475 35.6433 29.475Z" fill="#E4A025"/>
<path id="Vector_4" d="M47.8495 17.2689C47.8495 16.2394 47.0151 15.405 45.9856 15.405C45.3559 15.405 44.7976 15.7184 44.4606 16.1973C44.4077 16.2727 44.3401 16.31 44.253 16.31C44.1139 16.31 44.0022 16.1964 44.0022 16.0583C44.0022 15.9672 44.0512 15.8879 44.1237 15.8438C44.6624 15.5176 45.0229 14.925 45.0229 14.2492C45.0229 13.2208 44.1883 12.3862 43.159 12.3862C42.1305 12.3862 41.295 13.2208 41.295 14.2492C41.295 14.7232 41.4723 15.1562 41.7632 15.4843C41.8405 15.5871 41.819 15.7106 41.6613 15.7106H29.6257C29.467 15.7106 29.4455 15.5871 29.5238 15.4843C29.8138 15.1562 29.9911 14.7232 29.9911 14.2492C29.9911 13.2208 29.1565 12.3862 28.1272 12.3862C27.0987 12.3862 26.2642 13.2208 26.2642 14.2492C26.2642 14.925 26.6236 15.5176 27.1623 15.8438C27.2348 15.8879 27.2848 15.9672 27.2848 16.0583C27.2848 16.1964 27.1722 16.31 27.034 16.31C26.9469 16.31 26.8793 16.2727 26.8264 16.1973C26.4885 15.7184 25.9312 15.405 25.3004 15.405C24.272 15.405 23.4375 16.2394 23.4375 17.2689C23.4375 18.2983 24.272 19.1328 25.3004 19.1328C25.9312 19.1328 26.4885 18.8194 26.8264 18.3394C26.8793 18.265 26.9469 18.2287 27.034 18.2287C27.1722 18.2287 27.2848 18.3404 27.2848 18.4795C27.2848 18.5706 27.2348 18.65 27.1623 18.694C26.6236 19.0212 26.2642 19.6127 26.2642 20.2876C26.2642 21.3169 27.0987 22.1515 28.1272 22.1515C29.1565 22.1515 29.9911 21.3169 29.9911 20.2876C29.9911 19.8145 29.8138 19.3816 29.5238 19.0524C29.4455 18.9506 29.467 18.8272 29.6257 18.8272H41.6613C41.819 18.8272 41.8405 18.9506 41.7632 19.0524C41.4723 19.3816 41.295 19.8145 41.295 20.2876C41.295 21.3169 42.1305 22.1515 43.159 22.1515C44.1883 22.1515 45.0229 21.3169 45.0229 20.2876C45.0229 19.6127 44.6624 19.0212 44.1237 18.694C44.0512 18.65 44.0022 18.5706 44.0022 18.4795C44.0022 18.3404 44.1139 18.2287 44.253 18.2287C44.3401 18.2287 44.4077 18.265 44.4606 18.3394C44.7976 18.8194 45.3559 19.1328 45.9856 19.1328C47.0151 19.1328 47.8495 18.2983 47.8495 17.2689Z" fill="#E4A025"/>
<path id="Vector_5" d="M68.0838 29.475C69.1132 29.475 69.9477 28.6416 69.9477 27.6111C69.9477 26.9804 69.6343 26.424 69.1553 26.0871C69.0799 26.0332 69.0437 25.9656 69.0437 25.8795C69.0437 25.7404 69.1553 25.6277 69.2944 25.6277C69.3855 25.6277 69.4648 25.6777 69.5089 25.7502C69.835 26.2889 70.4277 26.6484 71.1025 26.6484C72.1329 26.6484 72.9674 25.8148 72.9674 24.7844C72.9674 23.756 72.1329 22.9214 71.1025 22.9214C70.6294 22.9214 70.1975 23.0978 69.8683 23.3887C69.7665 23.466 69.6411 23.4445 69.6411 23.2868V11.2502C69.6411 11.0936 69.7665 11.072 69.8683 11.1484C70.1975 11.4403 70.6294 11.6166 71.1025 11.6166C72.1329 11.6166 72.9674 10.782 72.9674 9.75268C72.9674 8.72423 72.1329 7.88876 71.1025 7.88876C70.4277 7.88876 69.835 8.24913 69.5089 8.78792C69.4648 8.86033 69.3855 8.91028 69.2944 8.91028C69.1553 8.91028 69.0437 8.79765 69.0437 8.65853C69.0437 8.57238 69.0799 8.50377 69.1553 8.45192C69.6343 8.11402 69.9477 7.55767 69.9477 6.92691C69.9477 5.89746 69.1132 5.06299 68.0838 5.06299C67.0554 5.06299 66.2208 5.89746 66.2208 6.92691C66.2208 7.55767 66.5342 8.11402 67.0123 8.45192C67.0887 8.50377 67.1239 8.57238 67.1239 8.65853C67.1239 8.79765 67.0123 8.91028 66.8731 8.91028C66.7831 8.91028 66.7027 8.86033 66.6596 8.78792C66.3325 8.24913 65.7409 7.88876 65.0651 7.88876C64.0356 7.88876 63.2012 8.72423 63.2012 9.75268C63.2012 10.782 64.0356 11.6166 65.0651 11.6166C65.5391 11.6166 65.9701 11.4403 66.2992 11.1484C66.403 11.072 66.5264 11.0936 66.5264 11.2502V23.2868C66.5264 23.4445 66.403 23.4661 66.2992 23.3887C65.9701 23.0978 65.5391 22.9214 65.0651 22.9214C64.0356 22.9214 63.2012 23.756 63.2012 24.7844C63.2012 25.8148 64.0356 26.6484 65.0651 26.6484C65.7409 26.6484 66.3325 26.2889 66.6596 25.7502C66.7027 25.6777 66.7831 25.6277 66.8731 25.6277C67.0123 25.6277 67.1239 25.7404 67.1239 25.8795C67.1239 25.9656 67.0887 26.0332 67.0123 26.0871C66.5342 26.424 66.2208 26.9804 66.2208 27.6111C66.2208 28.6416 67.0554 29.475 68.0838 29.475Z" fill="#E4A025"/>
<path id="Vector_6" d="M80.2891 17.2689C80.2891 16.2394 79.4545 15.405 78.4262 15.405C77.7953 15.405 77.2381 15.7184 76.9002 16.1973C76.8472 16.2727 76.7797 16.31 76.6924 16.31C76.5543 16.31 76.4417 16.1964 76.4417 16.0583C76.4417 15.9672 76.4916 15.8879 76.5652 15.8438C77.1029 15.5176 77.4623 14.925 77.4623 14.2492C77.4623 13.2208 76.6289 12.3862 75.5994 12.3862C74.571 12.3862 73.7345 13.2208 73.7345 14.2492C73.7345 14.7232 73.9118 15.1562 74.2027 15.4843C74.281 15.5871 74.2595 15.7106 74.1009 15.7106H62.0653C61.9075 15.7106 61.8859 15.5871 61.9634 15.4843C62.2552 15.1562 62.4315 14.7232 62.4315 14.2492C62.4315 13.2208 61.5971 12.3862 60.5676 12.3862C59.5382 12.3862 58.7037 13.2208 58.7037 14.2492C58.7037 14.925 59.0632 15.5176 59.6029 15.8438C59.6744 15.8879 59.7243 15.9672 59.7243 16.0583C59.7243 16.1964 59.6117 16.31 59.4736 16.31C59.3864 16.31 59.3188 16.2727 59.2659 16.1973C58.929 15.7184 58.3707 15.405 57.7409 15.405C56.7115 15.405 55.877 16.2394 55.877 17.2689C55.877 18.2983 56.7115 19.1328 57.7409 19.1328C58.3707 19.1328 58.929 18.8194 59.2659 18.3394C59.3188 18.265 59.3864 18.2287 59.4736 18.2287C59.6117 18.2287 59.7243 18.3404 59.7243 18.4795C59.7243 18.5706 59.6744 18.65 59.6029 18.694C59.0632 19.0212 58.7037 19.6127 58.7037 20.2876C58.7037 21.3169 59.5382 22.1515 60.5676 22.1515C61.5971 22.1515 62.4315 21.3169 62.4315 20.2876C62.4315 19.8145 62.2552 19.3816 61.9634 19.0524C61.8859 18.9506 61.9075 18.8272 62.0653 18.8272H74.1009C74.2595 18.8272 74.281 18.9506 74.2027 19.0524C73.9118 19.3816 73.7345 19.8145 73.7345 20.2876C73.7345 21.3169 74.571 22.1515 75.5994 22.1515C76.6289 22.1515 77.4623 21.3169 77.4623 20.2876C77.4623 19.6127 77.1029 19.0212 76.5652 18.694C76.4917 18.65 76.4417 18.5706 76.4417 18.4795C76.4417 18.3404 76.5543 18.2287 76.6924 18.2287C76.7797 18.2287 76.8472 18.265 76.9002 18.3394C77.2381 18.8194 77.7953 19.1328 78.4262 19.1328C79.4545 19.1328 80.2891 18.2983 80.2891 17.2689Z" fill="#E4A025"/>
<path id="Vector_7" d="M51.8309 65.9951C52.8602 65.9951 53.6947 65.1606 53.6947 64.1303C53.6947 63.5014 53.3813 62.9431 52.9024 62.6061C52.8269 62.5533 52.7907 62.4847 52.7907 62.3985C52.7907 62.2614 52.9034 62.1478 53.0415 62.1478C53.1325 62.1478 53.2129 62.1967 53.2559 62.2672C53.5831 62.8079 54.1747 63.1684 54.8505 63.1684C55.879 63.1684 56.7134 62.3338 56.7134 61.3055C56.7134 60.2751 55.879 59.4406 54.8505 59.4406C54.3764 59.4406 53.9445 59.6169 53.6164 59.9088C53.5126 59.9871 53.3892 59.9636 53.3892 59.8069V47.7702C53.3892 47.6116 53.5126 47.591 53.6164 47.6684C53.9445 47.9593 54.3764 48.1366 54.8505 48.1366C55.879 48.1366 56.7134 47.3012 56.7134 46.2717C56.7134 45.2433 55.879 44.4088 54.8505 44.4088C54.1747 44.4088 53.5831 44.7683 53.2559 45.308C53.2129 45.3795 53.1325 45.4294 53.0415 45.4294C52.9034 45.4294 52.7907 45.3177 52.7907 45.1787C52.7907 45.0914 52.8269 45.0239 52.9024 44.971C53.3813 44.6341 53.6947 44.0757 53.6947 43.4459C53.6947 42.4165 52.8602 41.582 51.8309 41.582C50.8014 41.582 49.967 42.4165 49.967 43.4459C49.967 44.0757 50.2804 44.6341 50.7603 44.971C50.8358 45.0239 50.872 45.0914 50.872 45.1787C50.872 45.3177 50.7583 45.4294 50.6212 45.4294C50.5301 45.4294 50.4508 45.3795 50.4067 45.308C50.0796 44.7683 49.488 44.4088 48.8112 44.4088C47.7827 44.4088 46.9482 45.2433 46.9482 46.2717C46.9482 47.3012 47.7827 48.1366 48.8112 48.1366C49.2853 48.1366 49.7181 47.9593 50.0463 47.6684C50.1491 47.591 50.2725 47.6116 50.2725 47.7702V59.8069C50.2725 59.9636 50.1491 59.9871 50.0463 59.9088C49.7181 59.6169 49.2853 59.4406 48.8112 59.4406C47.7827 59.4406 46.9482 60.275 46.9482 61.3055C46.9482 62.3338 47.7827 63.1684 48.8112 63.1684C49.488 63.1684 50.0796 62.8079 50.4067 62.2672C50.4508 62.1967 50.5301 62.1478 50.6212 62.1478C50.7583 62.1478 50.872 62.2614 50.872 62.3985C50.872 62.4847 50.8357 62.5533 50.7603 62.6061C50.2804 62.9431 49.967 63.5014 49.967 64.1303C49.967 65.1606 50.8014 65.9951 51.8309 65.9951Z" fill="#E4A025"/>
<path id="Vector_8" d="M64.0371 53.7881C64.0371 52.7577 63.2036 51.9242 62.1732 51.9242C61.5434 51.9242 60.9861 52.2367 60.6491 52.7166C60.5953 52.793 60.5276 52.8282 60.4415 52.8282C60.3024 52.8282 60.1908 52.7156 60.1908 52.5785C60.1908 52.4854 60.2397 52.4071 60.3122 52.363C60.8509 52.0368 61.2104 51.4452 61.2104 50.7694C61.2104 49.74 60.3769 48.9055 59.3465 48.9055C58.318 48.9055 57.4835 49.74 57.4835 50.7694C57.4835 51.2415 57.6599 51.6754 57.9517 52.0035C58.0281 52.1064 58.0066 52.2308 57.8498 52.2308H45.8133C45.6555 52.2308 45.634 52.1064 45.7114 52.0035C46.0023 51.6754 46.1786 51.2415 46.1786 50.7694C46.1786 49.74 45.3441 48.9055 44.3157 48.9055C43.2862 48.9055 42.4518 49.74 42.4518 50.7694C42.4518 51.4452 42.8112 52.0368 43.3499 52.363C43.4224 52.4071 43.4724 52.4854 43.4724 52.5785C43.4724 52.7156 43.3598 52.8282 43.2206 52.8282C43.1345 52.8282 43.0669 52.793 43.0149 52.7166C42.676 52.2367 42.1197 51.9242 41.4889 51.9242C40.4596 51.9242 39.625 52.7577 39.625 53.7881C39.625 54.8175 40.4596 55.652 41.4889 55.652C42.1197 55.652 42.676 55.3386 43.0149 54.8606C43.0669 54.7842 43.1345 54.7489 43.2206 54.7489C43.3598 54.7489 43.4724 54.8606 43.4724 54.9997C43.4724 55.0898 43.4224 55.1702 43.3499 55.2132C42.8112 55.5404 42.4518 56.1339 42.4518 56.8078C42.4518 57.8362 43.2862 58.6707 44.3157 58.6707C45.3441 58.6707 46.1786 57.8362 46.1786 56.8078C46.1786 56.3357 46.0023 55.9027 45.7114 55.5737C45.634 55.4698 45.6556 55.3465 45.8133 55.3465H57.8498C58.0066 55.3465 58.0281 55.4698 57.9517 55.5737C57.6599 55.9027 57.4835 56.3357 57.4835 56.8078C57.4835 57.8362 58.318 58.6707 59.3465 58.6707C60.3769 58.6707 61.2104 57.8362 61.2104 56.8078C61.2104 56.1339 60.8509 55.5404 60.3122 55.2132C60.2397 55.1702 60.1908 55.0898 60.1908 54.9997C60.1908 54.8606 60.3024 54.7489 60.4415 54.7489C60.5276 54.7489 60.5953 54.7842 60.6491 54.8606C60.9861 55.3386 61.5434 55.652 62.1732 55.652C63.2036 55.652 64.0371 54.8175 64.0371 53.7881Z" fill="#E4A025"/>
<g id="Clip path group">
<mask id="mask0_7856_2105" style="mask-type:luminance" maskUnits="userSpaceOnUse" x="18" y="0" width="68" height="73">
<g id="clippath">
<path id="Vector_9" d="M51.854 72.1168C59.2196 68.5202 68.9201 61.4112 75.9429 51.0476C82.9656 40.6829 85.0214 29.0352 85.0214 20.7273V5.73768C80.3965 3.8532 67.0141 0 51.854 0C36.6929 0 23.3105 3.8532 18.6855 5.73768V20.7273C18.6855 29.0352 20.7404 40.6829 27.7632 51.0476C34.7879 61.4112 44.4875 68.5202 51.854 72.1168Z" fill="white"/>
</g>
</mask>
<g mask="url(#mask0_7856_2105)">
<g id="Group">
<path id="Vector_10" d="M79.8391 47.7928L51.9166 20.4697L23.9961 47.7928L28.627 54.9938L51.9166 32.2047L75.1631 54.9507L79.8391 47.7928Z" fill="#E4A025"/>
</g>
</g>
</g>
<path id="Vector_11" d="M0 103.685L1.27861 103.578C2.66311 103.437 2.66311 103.259 2.66311 98.9269V86.5681C2.66311 82.2348 2.66311 82.0568 1.27861 81.9157L0 81.8081V81.0269H15.6615C15.8043 81.8081 16.0514 83.1582 16.0514 84.7921C16.0514 85.6087 15.9808 85.8927 15.9808 86.2119L15.1289 86.3547C14.3476 82.5541 14.2771 82.0215 9.26967 82.0215H5.96635V92.3564H9.4813C12.2519 92.3564 12.8922 92.3212 13.1039 90.8644L13.2819 89.6572H14.2048V96.0495H13.2819L13.1039 94.8431C12.8921 93.3863 12.2519 93.3511 9.4813 93.3511H5.96635V98.9269C5.96635 103.259 5.96635 103.437 7.91957 103.578L9.1974 103.685V104.466H0V103.685Z" fill="white"/>
<path id="Vector_12" d="M31.4358 103.011C30.8679 103.544 28.4518 105 25.2207 105C20.7447 105 17.0869 102.016 17.0869 96.9738C17.0869 90.9712 21.2437 87.7747 25.3266 87.7747C30.0866 87.7747 31.1165 91.2199 31.5786 93.1379C27.5293 95.1264 23.4095 96.2278 20.3549 96.9377C20.4977 99.1395 22.2031 103.33 26.9967 103.33C29.1625 103.33 30.5134 102.443 31.009 102.194L31.4358 103.011ZM20.3549 95.3751C22.9121 94.9138 25.8962 94.1678 28.3812 93.3512C27.8838 91.1494 26.9967 89.018 24.2966 89.018C21.279 89.018 20.3549 92.7825 20.3549 95.3751Z" fill="white"/>
<path id="Vector_13" d="M33.3906 103.685L34.2425 103.579C35.4842 103.437 35.8051 103.437 35.8051 100.986V84.579C35.8051 81.773 35.8051 80.1398 34.5264 80.1398C34.3484 80.1398 34.0997 80.1751 34.0291 80.1751L33.4965 80.2456L33.3906 79.4643C34.5264 79.2157 37.403 78.8965 38.895 78.8965V100.986C38.895 103.437 39.1789 103.437 40.4929 103.579L41.3094 103.685V104.467H33.3906V103.685Z" fill="white"/>
<path id="Vector_14" d="M53.0987 93.1026C53.0987 91.5039 51.9629 88.9475 49.6542 88.9475C48.305 88.9475 47.3809 89.906 47.3809 91.4685C47.3809 95.517 55.2661 94.3451 55.2661 100.028C55.2661 103.401 52.4954 105 49.1216 105C46.813 105 45.5696 104.396 44.6119 103.97C44.0793 102.372 43.9365 100.596 43.9365 99.2101H44.8959C45.6049 101.519 46.813 103.827 49.6543 103.827C51.2521 103.827 52.1746 102.443 52.1746 101.199C52.1746 96.3697 44.291 98.0743 44.291 92.286C44.291 89.3734 46.8836 87.7747 49.9735 87.7747C51.857 87.7747 52.9575 88.3434 53.7388 88.8047C54.0933 90.0833 54.2008 91.2199 54.2008 93.1026H53.0987Z" fill="white"/>
<path id="Vector_15" d="M67.9079 103.827C67.4123 104.041 65.4935 105 63.7192 105C59.8833 105 59.7758 103.011 59.7758 99.1043V89.7993C58.9945 89.7641 57.9292 89.6935 57.0068 89.444V88.6635C57.9292 88.5913 58.9945 88.3796 59.7758 88.3073V87.3135C60.6999 86.1416 61.9079 85.0049 62.8657 84.2236L63.2924 84.4008C63.1849 85.0763 62.8657 87.2774 62.8657 88.3073C63.8603 88.3796 65.7069 88.5913 66.631 88.6635V89.444C65.7069 89.6935 63.8603 89.7641 62.8657 89.7993V97.4712C62.8657 100.277 62.8657 103.33 65.8833 103.33C66.631 103.33 67.2694 103.153 67.6962 103.011L67.9079 103.827Z" fill="white"/>
<path id="Vector_16" d="M83.3931 103.011C82.8252 103.544 80.4091 105 77.1764 105C72.7036 105 69.0459 102.016 69.0459 96.9738C69.0459 90.9712 73.201 87.7747 77.2839 87.7747C82.0439 87.7747 83.0739 91.2199 83.5343 93.1379C79.4866 95.1264 75.3668 96.2278 72.3122 96.9377C72.455 99.1395 74.1588 103.33 78.9541 103.33C81.1198 103.33 82.469 102.443 82.9663 102.194L83.3931 103.011ZM72.3122 95.3751C74.8694 94.9138 77.8535 94.1678 80.3385 93.3512C79.8412 91.1494 78.9541 89.018 76.2539 89.018C73.2363 89.018 72.3122 92.7825 72.3122 95.3751Z" fill="white"/>
<path id="Vector_17" d="M103.706 103.721C102.073 104.467 100.119 104.857 98.9128 105C98.6642 104.609 98.4508 104.005 98.2374 103.544C97.4209 103.97 95.8935 105 93.4438 105C89.749 105 85.5586 102.762 85.5586 97.1149C85.5586 90.332 91.2058 87.7747 95.4668 87.7747C96.3203 87.7747 97.2427 87.8461 98.0257 88.0948V84.579C98.0257 81.773 98.0257 80.1398 96.7471 80.1398C96.5689 80.1398 96.3203 80.1751 96.2497 80.1751L95.7154 80.2456L95.6096 79.4643C96.7471 79.2157 99.6235 78.8965 101.114 78.8965V100.347C101.114 102.229 101.327 103.046 102.287 103.046C102.428 103.046 102.713 103.046 102.855 103.011L103.495 102.905L103.706 103.721ZM98.0257 90.2613C97.1722 89.4801 96.0011 89.018 94.4738 89.018C91.1704 89.018 88.8266 91.5039 88.8266 95.8724C88.8266 100.383 91.6326 103.33 95.2181 103.33C96.285 103.33 97.5972 102.797 98.0257 102.549L98.0257 90.2613Z" fill="white"/>
</g>
<defs>
<clipPath id="clip0_7856_2105">
<rect width="103.707" height="105" fill="white"/>
</clipPath>
</defs>
</svg>
